<svg width="140" height="26" viewBox="0 0 140 26" fill="none" xmlns="http://www.w3.org/2000/svg">
<path d="M0 10C0 8.34315 1.34315 7 3 7H15C16.6569 7 18 8.34315 18 10V16C18 17.6569 16.6569 19 15 19H3C1.34315 19 0 17.6569 0 16V10Z" fill="#5B4EE8"/>
<path d="M0 2C0 0.895431 0.895431 0 2 0H16C17.1046 0 18 0.895431 18 2C18 3.10457 17.1046 4 16 4H2C0.89543 4 0 3.10457 0 2Z" fill="#5B4EE8" fill-opacity="0.5"/>
<path d="M0 24C0 22.8954 0.895431 22 2 22H16C17.1046 22 18 22.8954 18 24C18 25.1046 17.1046 26 16 26H2C0.89543 26 0 25.1046 0 24Z" fill="#5B4EE8" fill-opacity="0.5"/>
<path d="M27.512 22V6.355H37.949V8.875H30.368V13.201H37.004V15.721H30.368V22H27.512ZM39.5857 22V6.103H42.3367V22H39.5857ZM50.4627 22.252C49.3427 22.252 48.3207 21.993 47.3967 21.475C46.4867 20.957 45.7587 20.25 45.2127 19.354C44.6807 18.458 44.4147 17.436 44.4147 16.288C44.4147 15.14 44.6807 14.118 45.2127 13.222C45.7587 12.326 46.4867 11.619 47.3967 11.101C48.3067 10.583 49.3287 10.324 50.4627 10.324C51.5827 10.324 52.5977 10.583 53.5077 11.101C54.4177 11.619 55.1387 12.326 55.6707 13.222C56.2167 14.104 56.4897 15.126 56.4897 16.288C56.4897 17.436 56.2167 18.458 55.6707 19.354C55.1247 20.25 54.3967 20.957 53.4867 21.475C52.5767 21.993 51.5687 22.252 50.4627 22.252ZM50.4627 19.732C51.0787 19.732 51.6177 19.585 52.0797 19.291C52.5557 18.997 52.9267 18.591 53.1927 18.073C53.4727 17.541 53.6127 16.946 53.6127 16.288C53.6127 15.616 53.4727 15.028 53.1927 14.524C52.9267 14.006 52.5557 13.6 52.0797 13.306C51.6177 12.998 51.0787 12.844 50.4627 12.844C49.8327 12.844 49.2797 12.998 48.8037 13.306C48.3277 13.6 47.9497 14.006 47.6697 14.524C47.4037 15.028 47.2707 15.616 47.2707 16.288C47.2707 16.946 47.4037 17.541 47.6697 18.073C47.9497 18.591 48.3277 18.997 48.8037 19.291C49.2797 19.585 49.8327 19.732 50.4627 19.732ZM61.2478 22L57.3208 10.576H60.2188L63.0958 19.249L62.0878 19.228L65.1538 10.576H67.5898L70.6348 19.228L69.6268 19.249L72.5038 10.576H75.4018L71.4748 22H69.0178L65.9098 12.949H66.8338L63.6838 22H61.2478Z" fill="#493EBA"/>
<path d="M77.1409 22V6.355H87.5779V8.875H79.9969V13.201H86.6329V15.721H79.9969V22H77.1409ZM94.5545 22.252C93.4345 22.252 92.4125 21.993 91.4885 21.475C90.5785 20.957 89.8505 20.25 89.3045 19.354C88.7725 18.458 88.5065 17.436 88.5065 16.288C88.5065 15.14 88.7725 14.118 89.3045 13.222C89.8505 12.326 90.5785 11.619 91.4885 11.101C92.3985 10.583 93.4205 10.324 94.5545 10.324C95.6745 10.324 96.6895 10.583 97.5995 11.101C98.5095 11.619 99.2305 12.326 99.7625 13.222C100.309 14.104 100.582 15.126 100.582 16.288C100.582 17.436 100.309 18.458 99.7625 19.354C99.2165 20.25 98.4885 20.957 97.5785 21.475C96.6685 21.993 95.6605 22.252 94.5545 22.252ZM94.5545 19.732C95.1705 19.732 95.7095 19.585 96.1715 19.291C96.6475 18.997 97.0185 18.591 97.2845 18.073C97.5645 17.541 97.7045 16.946 97.7045 16.288C97.7045 15.616 97.5645 15.028 97.2845 14.524C97.0185 14.006 96.6475 13.6 96.1715 13.306C95.7095 12.998 95.1705 12.844 94.5545 12.844C93.9245 12.844 93.3715 12.998 92.8955 13.306C92.4195 13.6 92.0415 14.006 91.7615 14.524C91.4955 15.028 91.3625 15.616 91.3625 16.288C91.3625 16.946 91.4955 17.541 91.7615 18.073C92.0415 18.591 92.4195 18.997 92.8955 19.291C93.3715 19.585 93.9245 19.732 94.5545 19.732ZM102.668 22V10.576H105.251V13.117L105.041 12.739C105.307 11.885 105.72 11.29 106.28 10.954C106.854 10.618 107.54 10.45 108.338 10.45H109.01V12.886H108.023C107.239 12.886 106.609 13.131 106.133 13.621C105.657 14.097 105.419 14.769 105.419 15.637V22H102.668ZM110.522 22V10.576H113.105V13.222L112.811 12.781C113.021 11.955 113.441 11.339 114.071 10.933C114.701 10.527 115.443 10.324 116.297 10.324C117.235 10.324 118.061 10.569 118.775 11.059C119.489 11.549 119.951 12.193 120.161 12.991L119.384 13.054C119.734 12.144 120.259 11.465 120.959 11.017C121.659 10.555 122.464 10.324 123.374 10.324C124.186 10.324 124.907 10.506 125.537 10.87C126.181 11.234 126.685 11.745 127.049 12.403C127.413 13.047 127.595 13.796 127.595 14.65V22H124.844V15.301C124.844 14.797 124.753 14.363 124.571 13.999C124.389 13.635 124.137 13.355 123.815 13.159C123.493 12.949 123.101 12.844 122.639 12.844C122.205 12.844 121.82 12.949 121.484 13.159C121.148 13.355 120.889 13.635 120.707 13.999C120.525 14.363 120.434 14.797 120.434 15.301V22H117.683V15.301C117.683 14.797 117.592 14.363 117.41 13.999C117.228 13.635 116.969 13.355 116.633 13.159C116.311 12.949 115.926 12.844 115.478 12.844C115.044 12.844 114.659 12.949 114.323 13.159C113.987 13.355 113.728 13.635 113.546 13.999C113.364 14.363 113.273 14.797 113.273 15.301V22H110.522ZM134.27 22.252C133.052 22.252 131.988 21.965 131.078 21.391C130.182 20.803 129.566 20.012 129.23 19.018L131.288 18.031C131.582 18.675 131.988 19.179 132.506 19.543C133.038 19.907 133.626 20.089 134.27 20.089C134.774 20.089 135.173 19.977 135.467 19.753C135.761 19.529 135.908 19.235 135.908 18.871C135.908 18.647 135.845 18.465 135.719 18.325C135.607 18.171 135.446 18.045 135.236 17.947C135.04 17.835 134.823 17.744 134.585 17.674L132.716 17.149C131.75 16.869 131.015 16.442 130.511 15.868C130.021 15.294 129.776 14.615 129.776 13.831C129.776 13.131 129.951 12.522 130.301 12.004C130.665 11.472 131.162 11.059 131.792 10.765C132.436 10.471 133.171 10.324 133.997 10.324C135.075 10.324 136.027 10.583 136.853 11.101C137.679 11.619 138.267 12.347 138.617 13.285L136.517 14.272C136.321 13.754 135.992 13.341 135.53 13.033C135.068 12.725 134.55 12.571 133.976 12.571C133.514 12.571 133.15 12.676 132.884 12.886C132.618 13.096 132.485 13.369 132.485 13.705C132.485 13.915 132.541 14.097 132.653 14.251C132.765 14.405 132.919 14.531 133.115 14.629C133.325 14.727 133.563 14.818 133.829 14.902L135.656 15.448C136.594 15.728 137.315 16.148 137.819 16.708C138.337 17.268 138.596 17.954 138.596 18.766C138.596 19.452 138.414 20.061 138.05 20.593C137.686 21.111 137.182 21.517 136.538 21.811C135.894 22.105 135.138 22.252 134.27 22.252Z" fill="#111118"/>
</svg>
