<svg width="100" height="60" viewBox="0 0 100 60" fill="none" xmlns="http://www.w3.org/2000/svg">
<path d="M6.95546 56.8999L0 29.8999H5.99239L11.2357 52.5147H9.63063L15.1593 29.8999H20.8664L26.3951 52.5147H24.79L30.0333 29.8999H36.0257L29.0702 56.8999H22.6498L17.0855 35.1549H18.9402L13.3759 56.8999H6.95546Z" fill="#5B4EE8"/>
<path d="M38.4236 56.8999V29.8999H48.6249C50.4559 29.8999 52.0729 30.2261 53.4759 30.8784C54.9027 31.5308 56.0203 32.4972 56.8288 33.7778C57.6373 35.0583 58.0415 36.6408 58.0415 38.5254C58.0415 40.3616 57.6254 41.92 56.7931 43.2006C55.9846 44.4811 54.867 45.4596 53.4402 46.1361C52.0373 46.7885 50.4322 47.1147 48.6249 47.1147H43.9523V56.8999H38.4236ZM43.9523 42.222H48.6606C49.4453 42.222 50.123 42.065 50.6937 41.7509C51.2644 41.4368 51.7044 41.0019 52.0135 40.4462C52.3464 39.8905 52.5129 39.2502 52.5129 38.5254C52.5129 37.7764 52.3464 37.1241 52.0135 36.5684C51.7044 36.0127 51.2644 35.5778 50.6937 35.2637C50.123 34.9496 49.4453 34.7925 48.6606 34.7925H43.9523V42.222Z" fill="#5B4EE8"/>
<path d="M61.2309 56.8999V29.8999H79.4221V34.7925H66.7596V41.6422H77.6386V46.5348H66.7596V56.8999H61.2309Z" fill="#5B4EE8"/>
<path d="M81.8088 56.8999V29.8999H100V34.7925H87.3375V41.6422H98.2165V46.5348H87.3375V56.8999H81.8088Z" fill="#5B4EE8"/>
<path d="M8.49609 26.8994H2.78223L0 16.0996H5.99219L8.49609 26.8994ZM23.5068 26.8994H18.5049L18.0127 24.9775L17.5205 26.8994H12.5186L15.1592 16.0996H20.8662L23.5068 26.8994ZM33.2432 26.8994H27.5293L30.0332 16.0996H36.0254L33.2432 26.8994ZM48.625 16.0996C50.4558 16.0996 52.0727 16.4259 53.4756 17.0781C54.9023 17.7305 56.0206 18.697 56.8291 19.9775C57.6376 21.2581 58.042 22.841 58.042 24.7256C58.042 25.4997 57.9663 26.2241 57.8184 26.8994H51.8555C51.9108 26.8177 51.9649 26.7342 52.0137 26.6465C52.3465 26.0908 52.5127 25.4503 52.5127 24.7256C52.5127 23.9767 52.3465 23.3242 52.0137 22.7686C51.7045 22.2128 51.2641 21.778 50.6934 21.4639C50.1227 21.1498 49.4448 20.9922 48.6602 20.9922H43.9521V26.8994H38.4238V16.0996H48.625ZM79.4219 20.9922H66.7598V26.8994H61.2305V16.0996H79.4219V20.9922ZM100 20.9922H87.3379V26.8994H81.8086V16.0996H100V20.9922Z" fill="#5B4EE8" fill-opacity="0.6"/>
<path d="M7.24414 13.0996H1.39062L0 7.7002H5.99219L7.24414 13.0996ZM22.1865 13.0996H13.8389L15.1592 7.7002H20.8662L22.1865 13.0996ZM34.6348 13.0996H28.7812L30.0332 7.7002H36.0254L34.6348 13.0996ZM48.625 7.7002C50.4559 7.7002 52.0727 8.02643 53.4756 8.67871C54.9023 9.33106 56.0206 10.2976 56.8291 11.5781C57.1238 12.045 57.3635 12.5525 57.5508 13.0996H50.7539C50.7337 13.088 50.7139 13.0748 50.6934 13.0635C50.1227 12.7495 49.4447 12.5928 48.6602 12.5928H43.9521V13.0996H38.4238V7.7002H48.625ZM79.4219 12.5928H66.7598V13.0996H61.2305V7.7002H79.4219V12.5928ZM100 12.5928H87.3379V13.0996H81.8086V7.7002H100V12.5928Z" fill="#5B4EE8" fill-opacity="0.4"/>
<path d="M6.61816 4.7002H0.695312L0 2H5.99219L6.61816 4.7002ZM21.5264 4.7002H14.499L15.1592 2H20.8662L21.5264 4.7002ZM35.3301 4.7002H29.4072L30.0332 2H36.0254L35.3301 4.7002ZM48.625 2C50.4559 2.00001 52.0727 2.32626 53.4756 2.97852C54.4256 3.4129 55.2382 3.98729 55.9141 4.7002H38.4238V2H48.625ZM79.4219 4.7002H61.2305V2H79.4219V4.7002ZM100 4.7002H81.8086V2H100V4.7002Z" fill="#5B4EE8" fill-opacity="0.2"/>
</svg>
